{"title":"11-11-11 (2011) DVDRip AC3-MS501","uid":6796976,"size":1471808268,"categoryP":"video","categoryS":"movies","magnet":"?xt=urn:btih:6db14f0a1d4a6f154d400738c53558c862916994&amp;dn=11-11-11+%282011%29+DVDRip+AC3-MS501&amp;tr=udp%3A%2F%2Ftracker.openbittorrent.com%3A80&amp;tr=udp%3A%2F%2Fopen.demonii.com%3A1337&amp;tr=udp%3A%2F%2Ftracker.coppersurfer.tk%3A6969&amp;tr=udp%3A%2F%2Fexodus.desync.com%3A6969","seeders":0,"leechers":0,"uploader":"moviesdoktore","files":6,"time":1320493121,"description":"11-11-11 (2011) DVDRip AC3-MS501\n\nHorror | Thriller \n\nposter\n &lt;a href=&quot;\nhttp://www.fastertorrent.org/uploads/13204890891.jpg&quot; rel=&quot;nofollow&quot; target=&quot;_NEW&quot;&gt;\nhttp://www.fastertorrent.org/uploads/13204890891.jpg&lt;/a&gt;\n\n\n\n\nPLOT\n.\nAfter his death of his wife and child, an author travels to Barcelona to see his estranged brother and dying father, where he learns that his life is plagued by events that occur on 11/11/11. \n. \n.\nINFO\n.\nSource: Retail DVD\nVideo: 720x300\nAudio: AC3 5.1 English\nSubs: NL Subs (Selectable vobsubs)\n.\nEnjoy\n.\nFormat                           : AVI\nFormat/Info                      : Audio Video Interleave\nFormat profile                   : OpenDML\nFile size                        : 1.37 GiB\nDuration                         : 1h 32mn\nOverall bit rate                 : 2 111 Kbps\nMovie name                       : DVD.Title1.DVDRip\nWriting application              : Lavf52.78.4\nOriginal source form/Name        : DVD\n\nVideo\nID                               : 0\nFormat                           : AVC\nFormat/Info                      : Advanced Video Codec\nCodec ID                         : H264\nDuration                         : 1h 32mn\nBit rate                         : 1 650 Kbps\nWidth                            : 720 pixels\nHeight                           : 300 pixels\nDisplay aspect ratio             : 2.40:1\nFrame rate                       : 25.000 fps\nColor space                      : YUV\nChroma subsampling               : 4:2:0\nBits/(Pixel*Frame)               : 0.306\nStream size                      : 1.07 GiB (78%)\n\nAudio\nID                               : 1\nFormat                           : AC-3\nFormat/Info                      : Audio Coding 3\nMode extension                   : CM (complete main)\nCodec ID                         : 2000\nDuration                         : 1h 32mn\nBit rate mode                    : Constant\nBit rate                         : 448 Kbps\nChannel(s)                       : 6 channels\nChannel positions                : Front: L C R, Side: L R, LFE\nSampling rate                    : 48.0 KHz\nBit depth                        : 16 bits\nStream size                      : 298 MiB (21%)\nAlignment                        : Aligned on interleaves\nInterleave, duration             : 32 ms (0.80 video frame)\nInterleave, preload duration     : 32 ms\n\n\n\n\nimdb &lt;a href=&quot;\nhttp://www.imdb.com/title/tt1712159/&quot; rel=&quot;nofollow&quot; target=&quot;_NEW&quot;&gt;\nhttp://www.imdb.com/title/tt1712159/&lt;/a&gt;\n\n\n\n\nscreenshots\n\n &lt;a href=&quot;\nhttp://www.fastertorrent.org/uploads/13204893161.png&quot; rel=&quot;nofollow&quot; target=&quot;_NEW&quot;&gt;\nhttp://www.fastertorrent.org/uploads/13204893161.png&lt;/a&gt;\n","torrent":{"xt":"urn:btih:6db14f0a1d4a6f154d400738c53558c862916994","amp;dn":"11-11-11+%282011%29+DVDRip+AC3-MS501","amp;tr":["udp%3A%2F%2Ftracker.openbittorrent.com%3A80","udp%3A%2F%2Fopen.demonii.com%3A1337","udp%3A%2F%2Ftracker.coppersurfer.tk%3A6969","udp%3A%2F%2Fexodus.desync.com%3A6969"],"infoHash":"6db14f0a1d4a6f154d400738c53558c862916994","infoHashBuffer":{"type":"Buffer","data":[109,177,79,10,29,74,111,21,77,64,7,56,197,53,88,200,98,145,105,148]},"announce":[],"urlList":[]}}